<svg width="64" height="64" viewBox="0 0 64 64" fill="none" xmlns="http://www.w3.org/2000/svg">
<path d="M41.6 22.08C41.6 19.0756 39.1644 16.64 36.16 16.64H26.496V27.52H28.16V34.176H26.4954V49.024H17.9194V9.856H38.4C45.1158 9.856 50.56 15.3002 50.56 22.016C50.56 28.7318 45.1158 34.176 38.4 34.176H36.736V27.4899C39.4697 27.2022 41.6 24.8899 41.6 22.08Z" fill="white"/>
<path d="M36.096 18.56H28.8V53.76H36.096V18.56Z" fill="white"/>
<path fill-rule="evenodd" clip-rule="evenodd" d="M32 60.544C47.7644 60.544 60.544 47.7644 60.544 32C60.544 16.2356 47.7644 3.456 32 3.456C16.2356 3.456 3.456 16.2356 3.456 32C3.456 47.7644 16.2356 60.544 32 60.544ZM32 59.52C47.1989 59.52 59.52 47.1989 59.52 32C59.52 16.8011 47.1989 4.48 32 4.48C16.8011 4.48 4.48 16.8011 4.48 32C4.48 47.1989 16.8011 59.52 32 59.52Z" fill="white"/>
<path fill-rule="evenodd" clip-rule="evenodd" d="M32 64C49.6731 64 64 49.6731 64 32C64 14.3269 49.6731 0 32 0C14.3269 0 0 14.3269 0 32C0 49.6731 14.3269 64 32 64ZM32 61.952C48.542 61.952 61.952 48.542 61.952 32C61.952 15.458 48.542 2.048 32 2.048C15.458 2.048 2.048 15.458 2.048 32C2.048 48.542 15.458 61.952 32 61.952Z" fill="white"/>
</svg>
