<svg width="20" height="20" viewBox="0 0 20 20" fill="none" xmlns="http://www.w3.org/2000/svg">
<path d="M9.83333 16.6876C9.375 16.6876 8.9825 16.5209 8.65583 16.1876C8.32917 15.8542 8.16611 15.4584 8.16667 15.0001C8.16667 14.5417 8.33 14.1492 8.65667 13.8226C8.98333 13.4959 9.37556 13.3329 9.83333 13.3334L10.3333 12.8542C10.4444 12.7431 10.5731 12.6562 10.7192 12.5934C10.8653 12.5306 11.0144 12.4995 11.1667 12.5001C11.4861 12.5001 11.7606 12.6181 11.99 12.8542C12.2194 13.0904 12.3339 13.3681 12.3333 13.6876V14.0417C12.3333 14.3195 12.4236 14.5487 12.6042 14.7292C12.7847 14.9098 13.0139 15.0001 13.2917 15.0001C13.5 15.0001 13.6875 14.9376 13.8542 14.8126C14.0208 14.6876 14.1389 14.5279 14.2083 14.3334L14.4583 13.6459C14.5833 13.3126 14.7847 13.0381 15.0625 12.8226C15.3403 12.607 15.6597 12.4995 16.0208 12.5001C16.1736 12.1112 16.2953 11.7084 16.3858 11.2917C16.4764 10.8751 16.5214 10.4445 16.5208 10.0001C16.5208 8.76397 16.2119 7.63536 15.5942 6.61425C14.9764 5.59314 14.1672 4.79119 13.1667 4.20841V5.00008C13.1667 5.45841 13.0033 5.85091 12.6767 6.17758C12.35 6.50425 11.9578 6.6673 11.5 6.66675H10.6667V8.33341C10.6667 8.56953 10.5867 8.76758 10.4267 8.92758C10.2667 9.08758 10.0689 9.1673 9.83333 9.16675H9V10.5834C9 10.889 8.89583 11.1459 8.6875 11.3542C8.47917 11.5626 8.22222 11.6667 7.91667 11.6667C7.72222 11.6667 7.545 11.6251 7.385 11.5417C7.225 11.4584 7.09667 11.3404 7 11.1876L5.66667 9.16675H4.83333V10.0001C4.83333 10.4306 4.6875 10.7987 4.39583 11.1042C4.10417 11.4098 3.75694 11.5904 3.35417 11.6459C3.71528 13.0904 4.49667 14.2917 5.69833 15.2501C6.9 16.2084 8.27833 16.6876 9.83333 16.6876ZM11.5 11.6667C11.2639 11.6667 11.0658 11.587 10.9058 11.4276C10.7458 11.2681 10.6661 11.0701 10.6667 10.8334C10.6667 10.5973 10.7467 10.3992 10.9067 10.2392C11.0667 10.0792 11.2644 9.99953 11.5 10.0001H12.3333C12.5694 10.0001 12.7675 10.0801 12.9275 10.2401C13.0875 10.4001 13.1672 10.5979 13.1667 10.8334C13.1667 11.0695 13.0867 11.2676 12.9267 11.4276C12.7667 11.5876 12.5689 11.6673 12.3333 11.6667H11.5ZM13.4375 9.16675C13.1597 9.16675 12.9408 9.05925 12.7808 8.84425C12.6208 8.62925 12.5828 8.38953 12.6667 8.12508L12.9792 7.20841C13.0347 7.04175 13.1319 6.9098 13.2708 6.81258C13.4097 6.71536 13.5625 6.66675 13.7292 6.66675C14.0069 6.66675 14.2258 6.77453 14.3858 6.99008C14.5458 7.20564 14.5839 7.44508 14.5 7.70841L14.1875 8.62508C14.1319 8.79175 14.0347 8.92369 13.8958 9.02091C13.7569 9.11814 13.6042 9.16675 13.4375 9.16675ZM9.83333 18.3334C8.68056 18.3334 7.59722 18.1145 6.58333 17.6767C5.56944 17.239 4.6875 16.6454 3.9375 15.8959C3.1875 15.1459 2.59389 14.264 2.15667 13.2501C1.71944 12.2362 1.50056 11.1529 1.5 10.0001C1.5 8.8473 1.71889 7.76397 2.15667 6.75008C2.59444 5.73619 3.18806 4.85425 3.9375 4.10425C4.6875 3.35425 5.56944 2.76064 6.58333 2.32341C7.59722 1.88619 8.68056 1.6673 9.83333 1.66675C10.9861 1.66675 12.0694 1.88564 13.0833 2.32341C14.0972 2.76119 14.9792 3.3548 15.7292 4.10425C16.4792 4.85425 17.0731 5.73619 17.5108 6.75008C17.9486 7.76397 18.1672 8.8473 18.1667 10.0001C18.1667 11.1529 17.9478 12.2362 17.51 13.2501C17.0722 14.264 16.4786 15.1459 15.7292 15.8959C14.9792 16.6459 14.0972 17.2398 13.0833 17.6776C12.0694 18.1154 10.9861 18.334 9.83333 18.3334Z" fill="#5C5555"/>
</svg>
