<svg width="20" height="20" viewBox="0 0 20 20" fill="none" xmlns="http://www.w3.org/2000/svg">
<path d="M3.33268 16.6666C2.87435 16.6666 2.48185 16.5033 2.15518 16.1766C1.82852 15.8499 1.66546 15.4577 1.66602 14.9999V4.99992C1.66602 4.54159 1.82935 4.14909 2.15602 3.82242C2.48268 3.49575 2.87491 3.3327 3.33268 3.33325H16.666C17.1244 3.33325 17.5169 3.49659 17.8435 3.82325C18.1702 4.14992 18.3332 4.54214 18.3327 4.99992V14.9999C18.3327 15.4583 18.1694 15.8508 17.8427 16.1774C17.516 16.5041 17.1238 16.6671 16.666 16.6666H3.33268ZM9.99935 10.8333L3.33268 6.66659V14.9999H16.666V6.66659L9.99935 10.8333ZM9.99935 9.16659L16.666 4.99992H3.33268L9.99935 9.16659ZM3.33268 6.66659V4.99992V14.9999V6.66659Z" fill="#5C5555"/>
</svg>
