<svg width="20" height="20" viewBox="0 0 20 20" fill="none" xmlns="http://www.w3.org/2000/svg">
<rect width="20" height="20" rx="10" fill="white"/>
<path d="M9.74996 10.7493L13 7.49935C13.1527 7.34657 13.3472 7.27018 13.5833 7.27018C13.8194 7.27018 14.0138 7.34657 14.1666 7.49935C14.3194 7.65213 14.3958 7.84657 14.3958 8.08268C14.3958 8.31879 14.3194 8.51324 14.1666 8.66602L10.3333 12.4993C10.25 12.5827 10.1597 12.6416 10.0625 12.676C9.96524 12.7105 9.86107 12.728 9.74996 12.7285C9.63885 12.7285 9.53468 12.711 9.43746 12.676C9.34024 12.641 9.24996 12.5821 9.16663 12.4993L5.33329 8.66602C5.18051 8.51324 5.10413 8.31879 5.10413 8.08268C5.10413 7.84657 5.18051 7.65213 5.33329 7.49935C5.48607 7.34657 5.68051 7.27018 5.91663 7.27018C6.15274 7.27018 6.34718 7.34657 6.49996 7.49935L9.74996 10.7493Z" fill="#E4312A"/>
</svg>
