<svg width="20" height="20" viewBox="0 0 20 20" fill="none" xmlns="http://www.w3.org/2000/svg">
<path d="M9.75065 9.2487L6.50065 12.4987C6.34787 12.6515 6.15343 12.7279 5.91732 12.7279C5.68121 12.7279 5.48676 12.6515 5.33399 12.4987C5.18121 12.3459 5.10482 12.1515 5.10482 11.9154C5.10482 11.6793 5.18121 11.4848 5.33399 11.332L9.16732 7.4987C9.25065 7.41536 9.34093 7.35648 9.43815 7.32203C9.53537 7.28759 9.63954 7.27009 9.75065 7.26953C9.86176 7.26953 9.96593 7.28703 10.0632 7.32203C10.1604 7.35703 10.2507 7.41592 10.334 7.4987L14.1673 11.332C14.3201 11.4848 14.3965 11.6793 14.3965 11.9154C14.3965 12.1515 14.3201 12.3459 14.1673 12.4987C14.0145 12.6515 13.8201 12.7279 13.584 12.7279C13.3479 12.7279 13.1534 12.6515 13.0007 12.4987L9.75065 9.2487Z" fill="#5C5555"/>
</svg>
