<svg width="20" height="20" viewBox="0 0 20 20" fill="none" xmlns="http://www.w3.org/2000/svg">
<path d="M10.5007 10.0001L7.25065 6.75008C7.09787 6.5973 7.02148 6.40286 7.02148 6.16675C7.02148 5.93064 7.09787 5.73619 7.25065 5.58341C7.40343 5.43064 7.59787 5.35425 7.83398 5.35425C8.07009 5.35425 8.26454 5.43064 8.41732 5.58341L12.2507 9.41675C12.334 9.50008 12.3932 9.59036 12.4282 9.68758C12.4632 9.7848 12.4804 9.88897 12.4798 10.0001C12.4798 10.1112 12.4623 10.2154 12.4273 10.3126C12.3923 10.4098 12.3334 10.5001 12.2507 10.5834L8.41732 14.4167C8.26454 14.5695 8.07009 14.6459 7.83398 14.6459C7.59787 14.6459 7.40343 14.5695 7.25065 14.4167C7.09787 14.264 7.02148 14.0695 7.02148 13.8334C7.02148 13.5973 7.09787 13.4029 7.25065 13.2501L10.5007 10.0001Z" fill="#5C5555"/>
</svg>
