<svg width="20" height="20" viewBox="0 0 20 20" fill="none" xmlns="http://www.w3.org/2000/svg">
<path d="M1.66602 15.8333V8.33325C1.66602 7.87492 1.82935 7.48242 2.15602 7.15575C2.48269 6.82909 2.87491 6.66603 3.33269 6.66659H5.83269V4.99992C5.83269 4.54159 5.99602 4.14909 6.32269 3.82242C6.64935 3.49575 7.04157 3.3327 7.49935 3.33325H12.4994C12.9577 3.33325 13.3502 3.49659 13.6769 3.82325C14.0035 4.14992 14.1666 4.54214 14.166 4.99992V6.66659H16.666C17.1244 6.66659 17.5169 6.82992 17.8435 7.15659C18.1702 7.48325 18.3332 7.87548 18.3327 8.33325V15.8333C18.3327 16.0694 18.2527 16.2674 18.0927 16.4274C17.9327 16.5874 17.7349 16.6671 17.4994 16.6666H2.49935C2.26324 16.6666 2.06519 16.5866 1.90519 16.4266C1.74519 16.2666 1.66546 16.0688 1.66602 15.8333ZM6.66602 12.4999C6.66602 12.736 6.58602 12.9341 6.42602 13.0941C6.26602 13.2541 6.06824 13.3338 5.83269 13.3333C5.59657 13.3333 5.39852 13.2533 5.23852 13.0933C5.07852 12.9333 4.9988 12.7355 4.99935 12.4999H3.33269V14.9999H16.666V12.4999H14.9994C14.9994 12.736 14.9194 12.9341 14.7594 13.0941C14.5994 13.2541 14.4016 13.3338 14.166 13.3333C13.9299 13.3333 13.7319 13.2533 13.5719 13.0933C13.4119 12.9333 13.3321 12.7355 13.3327 12.4999H6.66602ZM3.33269 8.33325V10.8333H4.99935C4.99935 10.5971 5.07935 10.3991 5.23935 10.2391C5.39935 10.0791 5.59713 9.99936 5.83269 9.99992C6.0688 9.99992 6.26685 10.0799 6.42685 10.2399C6.58685 10.3999 6.66657 10.5977 6.66602 10.8333H13.3327C13.3327 10.5971 13.4127 10.3991 13.5727 10.2391C13.7327 10.0791 13.9305 9.99936 14.166 9.99992C14.4021 9.99992 14.6002 10.0799 14.7602 10.2399C14.9202 10.3999 14.9999 10.5977 14.9994 10.8333H16.666V8.33325H3.33269ZM7.49935 6.66659H12.4994V4.99992H7.49935V6.66659Z" fill="#5C5555"/>
</svg>
