<svg width="20" height="20" viewBox="0 0 20 20" fill="none" xmlns="http://www.w3.org/2000/svg">
<path d="M10.0007 11.1666L5.91732 15.2499C5.76454 15.4027 5.5701 15.4791 5.33398 15.4791C5.09787 15.4791 4.90343 15.4027 4.75065 15.2499C4.59787 15.0971 4.52148 14.9027 4.52148 14.6666C4.52148 14.4305 4.59787 14.236 4.75065 14.0833L8.83398 9.99992L4.75065 5.91659C4.59787 5.76381 4.52148 5.56936 4.52148 5.33325C4.52148 5.09714 4.59787 4.9027 4.75065 4.74992C4.90343 4.59714 5.09787 4.52075 5.33398 4.52075C5.5701 4.52075 5.76454 4.59714 5.91732 4.74992L10.0007 8.83325L14.084 4.74992C14.2368 4.59714 14.4312 4.52075 14.6673 4.52075C14.9034 4.52075 15.0979 4.59714 15.2507 4.74992C15.4034 4.9027 15.4798 5.09714 15.4798 5.33325C15.4798 5.56936 15.4034 5.76381 15.2507 5.91659L11.1673 9.99992L15.2507 14.0833C15.4034 14.236 15.4798 14.4305 15.4798 14.6666C15.4798 14.9027 15.4034 15.0971 15.2507 15.2499C15.0979 15.4027 14.9034 15.4791 14.6673 15.4791C14.4312 15.4791 14.2368 15.4027 14.084 15.2499L10.0007 11.1666Z" fill="#5C5555"/>
</svg>
