<svg width="20" height="20" viewBox="0 0 20 20" fill="none" xmlns="http://www.w3.org/2000/svg">
<path d="M10 9.83334V3.33334C10 3.09723 10.08 2.89917 10.24 2.73917C10.4 2.57917 10.5978 2.49945 10.8333 2.5H16.6667C16.9028 2.5 17.1008 2.58 17.2608 2.74C17.4208 2.9 17.5006 3.09778 17.5 3.33334V7.5C17.5 7.73611 17.42 7.93417 17.26 8.09417C17.1 8.25417 16.9022 8.33389 16.6667 8.33334H12.5L10.7083 10.125C10.5694 10.2639 10.4167 10.2986 10.25 10.2292C10.0833 10.1597 10 10.0278 10 9.83334ZM11.6667 6.66667H15.8333V4.16667H11.6667V6.66667ZM16.625 17.5C14.8889 17.5 13.1736 17.1214 11.4792 16.3642C9.78472 15.6069 8.24306 14.5342 6.85417 13.1458C5.46528 11.7569 4.3925 10.2153 3.63583 8.52084C2.87917 6.82639 2.50056 5.11111 2.5 3.375C2.5 3.125 2.58333 2.91667 2.75 2.75C2.91667 2.58334 3.125 2.5 3.375 2.5H6.75C6.94444 2.5 7.11806 2.56611 7.27083 2.69834C7.42361 2.83056 7.51389 2.98667 7.54167 3.16667L8.08333 6.08334C8.11111 6.30556 8.10417 6.49306 8.0625 6.64584C8.02083 6.79861 7.94444 6.93056 7.83333 7.04167L5.8125 9.08334C6.09028 9.59722 6.42 10.0936 6.80167 10.5725C7.18333 11.0514 7.60361 11.5133 8.0625 11.9583C8.49306 12.3889 8.94444 12.7883 9.41667 13.1567C9.88889 13.525 10.3889 13.8617 10.9167 14.1667L12.875 12.2083C13 12.0833 13.1633 11.9894 13.365 11.9267C13.5667 11.8639 13.7644 11.8467 13.9583 11.875L16.8333 12.4583C17.0278 12.5139 17.1875 12.6147 17.3125 12.7608C17.4375 12.9069 17.5 13.07 17.5 13.25V16.625C17.5 16.875 17.4167 17.0833 17.25 17.25C17.0833 17.4167 16.875 17.5 16.625 17.5ZM5.02083 7.5L6.39583 6.125L6.04167 4.16667H4.1875C4.25694 4.73611 4.35417 5.29861 4.47917 5.85417C4.60417 6.40972 4.78472 6.95834 5.02083 7.5ZM12.4792 14.9583C13.0208 15.1944 13.5731 15.3819 14.1358 15.5208C14.6986 15.6597 15.2644 15.75 15.8333 15.7917V13.9583L13.875 13.5625L12.4792 14.9583Z" fill="#5C5555"/>
</svg>
